<svg id="Capa_1" enable-background="new 0 0 512 512" height="512" viewBox="0 0 512 512" width="512" xmlns="http://www.w3.org/2000/svg"><path d="m466.132 355.436-46.864-15.621c-6.546-2.182-10.962-8.309-10.962-15.209v-44.557h-96.194v44.557c0 6.901-4.416 13.027-10.962 15.209l-46.864 15.621c-22.913 7.638-38.368 29.081-38.368 53.233v15.669h288.582v-15.669c0-24.152-15.455-45.595-38.368-53.233z" fill="#f7d291"/><path d="m312.113 321.793c13.847 9.054 30.353 14.368 48.097 14.368s34.25-5.314 48.097-14.368v-33.729h-96.194z" fill="#ecbd83"/><path d="m288.065 215.917c-9.446-11.516-24.048-33.815-24.048-56.11 0-24.048 16.032-48.097 40.081-48.097h24.048v56.113z" fill="#a06e50"/><path d="m432.355 223.935s24.45-36.796 24.048-72.145c-.372-32.683-22.71-64.129-88.177-64.129-80.161 0-72.661 49.814-72.661 49.814 0 14.315 16.548 46.38 32.58 54.396s104.21 32.064 104.21 32.064z" fill="#b67f5f"/><path d="m360.21 312.113c-39.845 0-72.145-32.3-72.145-72.145v-24.051l19.884-46.394c2.526-5.895 8.323-9.717 14.736-9.717h77.606c17.709 0 32.065 14.356 32.065 32.065v48.097c-.001 39.844-32.302 72.145-72.146 72.145z" fill="#ffe1a0"/><path d="m466.132 355.436-34.23-11.41c-17.616 19.726-43.164 32.216-71.692 32.216s-54.076-12.49-71.692-32.216l-34.23 11.41c-22.913 7.638-38.368 29.081-38.368 53.233l32.027 15.669h256.553v-15.669c0-24.152-15.455-45.595-38.368-53.233z" fill="#6f6571"/><path d="m125.94 103.71c-52.956.969-94.392 46.402-94.392 99.367v117.052h192.387v-120.242c0-53.726-44.044-97.164-97.995-96.177z" fill="#785353"/><path d="m95.677 167.823c-20.23-6.643-30.604-19.482-37.103-33.563-16.784 18.067-27.026 42.505-27.026 68.817v117.052h99.326z" fill="#6e4848"/><path d="m209.616 355.437-38.847-12.95c-6.547-2.182-10.962-8.309-10.962-15.21v-31.197h-64.13v31.197c0 6.901-4.416 13.027-10.962 15.209l-38.847 12.95c-22.913 7.638-38.368 29.081-38.368 53.234v15.632c0 .02.017.037.037.037h240.41c.02 0 .037-.017.037-.037v-15.632c0-24.153-15.455-45.596-38.368-53.233z" fill="#e3aa75"/><path d="m95.677 329.447c9.824 4.296 20.656 6.715 32.065 6.715s22.24-2.419 32.065-6.715v-33.366h-64.13z" fill="#d29b6e"/><path d="m186.07 210.862c-11.868-9.678-41.958-30.931-90.393-43.04l-8.016 12.024-24.048 65.94c0 34.156 25.775 63.981 59.86 66.188 37.35 2.419 68.398-27.16 68.398-63.99v-24.775c0-4.782-2.096-9.325-5.801-12.347z" fill="#f5b97d"/><path d="m7.5 424.339h240.447c.021 0 .037-.017.037-.037v-15.632c0-24.153-15.455-45.596-38.368-53.233l-17.462-5.821c-16.413 24.038-41.957 43.509-55.416 52.794-5.426 3.744-12.566 3.744-17.993 0-13.46-9.286-39.008-28.758-55.417-52.794l-17.459 5.82c-27.786 9.262-38.369 28.822-38.369 68.903z" fill="#ffe07d"/><path d="m87.661 247.984v-68.137l-17.317 25.975c-4.389 6.584-6.731 14.32-6.731 22.233v17.731c0 34.157 25.775 63.981 59.861 66.188 5.564.36 10.962-.068 16.164-1.046-29.602-5.683-51.977-31.685-51.977-62.944z" fill="#e3aa75"/><path d="m312.113 239.968v-62.468s-4.164-6.416-4.165-6.417l-19.884 44.833v24.051c0 39.845 32.3 72.145 72.145 72.145 4.106 0 8.106-.423 12.024-1.082-34.108-5.734-60.12-35.323-60.12-71.062z" fill="#f7d291"/><path d="m211.987 348.321-38.847-12.949c-3.376-1.125-5.661-4.212-5.806-7.743h56.601c4.142 0 7.5-3.358 7.5-7.5v-120.242c0-57.177-46.517-103.694-103.694-103.694s-103.693 46.517-103.693 103.694v120.242c0 4.142 3.358 7.5 7.5 7.5h56.601c-.146 3.531-2.429 6.618-5.806 7.743l-38.847 12.949c-26.016 8.673-43.496 32.925-43.496 60.348v15.669c0 4.142 3.358 7.5 7.5 7.5s7.5-3.358 7.5-7.5v-15.669c0-20.957 13.358-39.491 33.24-46.118l14.622-4.874c20.412 32.443 59.347 56.055 61.021 57.06 1.188.712 2.523 1.069 3.859 1.069s2.671-.356 3.859-1.069c1.674-1.004 40.603-24.613 61.02-57.061l14.624 4.875c19.882 6.627 33.24 25.161 33.24 46.118v15.669c0 4.142 3.358 7.5 7.5 7.5s7.5-3.358 7.5-7.5v-15.669c-.001-27.423-17.481-51.675-43.498-60.348zm-172.939-148.434c0-48.906 39.788-88.694 88.694-88.694s88.693 39.788 88.693 88.694v112.742h-49.129v-4.973c19.309-12.845 32.064-34.793 32.064-59.672v-24.048c0-8.518-5.439-22.336-52.472-43.893-24.139-11.064-47.853-19.003-48.85-19.335-3.928-1.31-8.176.814-9.487 4.744-1.31 3.93.814 8.177 4.744 9.487.236.079 23.935 8.012 47.344 18.741 43.225 19.811 43.722 29.839 43.722 30.256v24.048c0 31.225-25.404 56.629-56.629 56.629s-56.629-25.404-56.629-56.629v-22.356c0-4.865 1.427-9.578 4.125-13.626l10.647-15.97c2.298-3.446 1.367-8.103-2.08-10.4s-8.103-1.367-10.4 2.08l-10.647 15.971c-4.347 6.521-6.645 14.11-6.645 21.946v22.356c0 24.879 12.756 46.827 32.064 59.672v4.973h-49.129zm88.69 199.523c-9.604-6.333-34.882-24.247-50.173-46.634l9.521-3.174c9.625-3.208 16.091-12.18 16.091-22.325v-12.006c7.665 2.807 15.939 4.341 24.565 4.341 8.625 0 16.899-1.533 24.564-4.34v12.005c0 10.145 6.466 19.117 16.091 22.325l9.519 3.173c-15.271 22.345-40.573 40.293-50.178 46.635z"/><path d="m99.686 239.452c4.142 0 7.5-3.358 7.5-7.5v-8.016c0-4.142-3.358-7.5-7.5-7.5s-7.5 3.358-7.5 7.5v8.016c0 4.142 3.357 7.5 7.5 7.5z"/><path d="m155.798 239.452c4.142 0 7.5-3.358 7.5-7.5v-8.016c0-4.142-3.358-7.5-7.5-7.5s-7.5 3.358-7.5 7.5v8.016c0 4.142 3.358 7.5 7.5 7.5z"/><path d="m104.869 265.701c-1.698 3.778-.012 8.217 3.766 9.916 5.699 2.562 12.306 3.916 19.107 3.916s13.409-1.354 19.107-3.916c3.778-1.698 5.464-6.138 3.766-9.916s-6.139-5.464-9.916-3.766c-3.78 1.699-8.261 2.597-12.958 2.597s-9.178-.898-12.958-2.597c-3.775-1.697-8.216-.012-9.914 3.766z"/><path d="m341.103 267.601c5.699 2.562 12.306 3.916 19.107 3.916 6.802 0 13.409-1.354 19.107-3.916 3.778-1.698 5.464-6.138 3.765-9.916s-6.138-5.464-9.916-3.765c-3.779 1.699-8.26 2.597-12.957 2.597s-9.178-.898-12.958-2.597c-3.776-1.698-8.217-.012-9.916 3.766s-.011 8.216 3.768 9.915z"/><path d="m468.503 348.321-46.862-15.621c-3.489-1.163-5.834-4.416-5.834-8.094v-27.685c14.822-14.472 24.048-34.651 24.048-56.953v-13.846c5.193-8.344 24.422-41.502 24.048-74.417-.23-20.249-7.932-37.507-22.271-49.909-16.601-14.356-41.298-21.635-73.406-21.635-32.414 0-55.591 7.833-68.887 23.281-1.505 1.749-2.807 3.524-3.949 5.298-.279.029-.559.07-.84.132-10.053 2.202-19.407 8.141-26.338 16.723-7.651 9.473-11.695 21.303-11.695 34.212 0 29.167 17.706 51.853 24.048 59.043v21.118c0 22.302 9.226 42.481 24.048 56.953v27.685c0 3.678-2.345 6.931-5.834 8.094l-41.547 13.849c-3.93 1.31-6.053 5.558-4.744 9.487 1.048 3.143 3.974 5.13 7.114 5.13.786 0 1.586-.125 2.373-.387l24.254-8.085c19.443 19.784 46.135 31.047 73.98 31.047 27.786 0 54.55-11.278 73.981-31.047l29.57 9.857c19.882 6.627 33.24 25.161 33.24 46.118v15.669c0 4.142 3.358 7.5 7.5 7.5s7.5-3.358 7.5-7.5v-15.669c0-27.423-17.48-51.675-43.497-60.348zm-172.939-108.353v-24.048c0-2.065-.835-3.935-2.186-5.292l.001-.001c-.219-.22-21.863-22.376-21.863-50.82 0-15.167 7.559-26.513 16.885-32.377-.932 6.326-.309 10.79-.253 11.162.617 4.096 4.433 6.913 8.533 6.3 4.096-.617 6.917-4.437 6.3-8.533-.018-.121-1.555-12.349 7.726-23.131 10.172-11.819 30.062-18.066 57.519-18.066 28.401 0 49.797 6.05 63.594 17.981 13.893 12.015 16.959 27.695 17.084 38.733.162 14.246-4.14 28.963-9.049 41.039v-1.044c0-1.076-.211-10.797-7.512-20.532-11.798-15.73-32.66-19.032-48.084-19.032h-60.59c-10.145 0-19.117 6.466-22.325 16.09l-4.362 13.086c-1.31 3.93.814 8.177 4.743 9.487 3.929 1.308 8.177-.814 9.487-4.743l4.362-13.086c1.163-3.49 4.416-5.834 8.094-5.834h60.59c38.86 0 40.534 22.13 40.597 24.564v48.097c0 35.646-29 64.645-64.646 64.645s-64.645-29-64.645-64.645zm64.645 128.774c-21.299 0-41.808-7.707-57.802-21.439l1.115-.372c9.625-3.208 16.091-12.18 16.091-22.325v-16.154c11.897 7.079 25.777 11.161 40.597 11.161s28.7-4.081 40.597-11.161v16.154c0 10.145 6.466 19.117 16.091 22.325l1.114.371c-15.997 13.723-36.55 21.44-57.803 21.44z"/><path d="m328.145 231.436c4.142 0 7.5-3.358 7.5-7.5v-8.016c0-4.142-3.358-7.5-7.5-7.5s-7.5 3.358-7.5 7.5v8.016c0 4.142 3.358 7.5 7.5 7.5z"/><path d="m392.274 231.436c4.142 0 7.5-3.358 7.5-7.5v-8.016c0-4.142-3.358-7.5-7.5-7.5s-7.5 3.358-7.5 7.5v8.016c0 4.142 3.358 7.5 7.5 7.5z"/></svg>