<svg clip-rule="evenodd" fill-rule="evenodd" height="512" image-rendering="optimizeQuality" shape-rendering="geometricPrecision" text-rendering="geometricPrecision" viewBox="0 0 512 512" width="512" xmlns="http://www.w3.org/2000/svg" xmlns:xodm="http://www.corel.com/coreldraw/odm/2003"><g id="Layer_x0020_1"><path d="m256 .09c141.33 0 255.91 114.58 255.91 255.91s-114.58 255.91-255.91 255.91-255.91-114.58-255.91-255.91 114.58-255.91 255.91-255.91zm38.09 264.35-55.26 30.3c-6.42 3.46-13.25-1.31-13.25-8.36v-62.15c0-7.02 6.92-11.96 13.44-8.25l55.61 31.87c6.51 3.79 5.88 13.07-.54 16.59zm-56.7 17.64 47.65-26.13-47.65-27.32zm135.28-58.51c0-26.22-21.24-47.47-47.46-47.47h-138.42c-26.21 0-47.46 21.25-47.46 47.47v64.86c0 26.22 21.25 47.47 47.46 47.47h138.42c26.22 0 47.46-21.25 47.46-47.47zm11.81 0v64.86c0 32.74-26.53 59.28-59.27 59.28h-138.42c-32.73 0-59.27-26.54-59.27-59.28v-64.86c0-32.74 26.54-59.28 59.27-59.28h138.42c32.74 0 59.27 26.54 59.27 59.28zm-128.48-211.66c-134.81 0-244.1 109.28-244.1 244.09s109.29 244.09 244.1 244.09 244.1-109.28 244.1-244.09-109.29-244.09-244.1-244.09z" fill-rule="nonzero"/></g></svg>